<mxfile host="app.diagrams.net" agent="Mozilla/5.0 (Windows NT 10.0; Win64; x64) AppleWebKit/537.36 (KHTML, like Gecko) Chrome/130.0.0.0 Safari/537.36" version="24.8.4">
  <diagram name="Trang-1" id="mACEPq8pxf743DaYWMax">
    <mxGraphModel grid="1" page="1" gridSize="10" guides="1" tooltips="1" connect="1" arrows="1" fold="1" pageScale="1" pageWidth="827" pageHeight="583" math="0" shadow="0">
      <root>
        <mxCell id="0" />
        <mxCell id="1" parent="0" />
        <mxCell id="xMDU6Mf7_W_wkWYFv5O9-4" value="" style="verticalAlign=top;align=left;spacingTop=8;spacingLeft=2;spacingRight=12;shape=cube;size=10;direction=south;fontStyle=4;html=1;whiteSpace=wrap;" vertex="1" parent="1">
          <mxGeometry x="160" y="150" width="660" height="880" as="geometry" />
        </mxCell>
        <mxCell id="xMDU6Mf7_W_wkWYFv5O9-5" value="&lt;font style=&quot;font-size: 14px;&quot;&gt;&amp;lt;&amp;lt;server&amp;gt;&amp;gt;&lt;/font&gt;" style="text;html=1;align=center;verticalAlign=middle;whiteSpace=wrap;rounded=0;" vertex="1" parent="1">
          <mxGeometry x="460" y="159" width="60" height="30" as="geometry" />
        </mxCell>
        <mxCell id="xMDU6Mf7_W_wkWYFv5O9-7" value="" style="verticalAlign=top;align=left;spacingTop=8;spacingLeft=2;spacingRight=12;shape=cube;size=10;direction=south;fontStyle=4;html=1;whiteSpace=wrap;" vertex="1" parent="1">
          <mxGeometry x="180" y="220" width="600" height="790" as="geometry" />
        </mxCell>
        <mxCell id="xMDU6Mf7_W_wkWYFv5O9-8" value="" style="verticalAlign=top;align=left;spacingTop=8;spacingLeft=2;spacingRight=12;shape=cube;size=10;direction=south;fontStyle=4;html=1;whiteSpace=wrap;" vertex="1" parent="1">
          <mxGeometry x="1080" y="141.5" width="710" height="868.5" as="geometry" />
        </mxCell>
        <mxCell id="xMDU6Mf7_W_wkWYFv5O9-12" value="" style="verticalAlign=top;align=left;spacingTop=8;spacingLeft=2;spacingRight=12;shape=cube;size=10;direction=south;fontStyle=4;html=1;whiteSpace=wrap;" vertex="1" parent="1">
          <mxGeometry x="-340" y="253" width="310" height="270" as="geometry" />
        </mxCell>
        <mxCell id="xMDU6Mf7_W_wkWYFv5O9-13" value="&lt;font style=&quot;font-size: 14px;&quot;&gt;Web server&lt;/font&gt;" style="text;align=center;fontStyle=1;verticalAlign=middle;spacingLeft=3;spacingRight=3;strokeColor=none;rotatable=0;points=[[0,0.5],[1,0.5]];portConstraint=eastwest;html=1;" vertex="1" parent="1">
          <mxGeometry x="450" y="179" width="80" height="26" as="geometry" />
        </mxCell>
        <mxCell id="xMDU6Mf7_W_wkWYFv5O9-15" value="&lt;font style=&quot;font-size: 14px;&quot;&gt;&amp;lt;&amp;lt;device&amp;gt;&amp;gt;&lt;/font&gt;" style="text;html=1;align=center;verticalAlign=middle;whiteSpace=wrap;rounded=0;" vertex="1" parent="1">
          <mxGeometry x="-215" y="263" width="60" height="30" as="geometry" />
        </mxCell>
        <mxCell id="xMDU6Mf7_W_wkWYFv5O9-16" value="&lt;font style=&quot;font-size: 14px;&quot;&gt;Personal computer&lt;/font&gt;" style="text;align=center;fontStyle=1;verticalAlign=middle;spacingLeft=3;spacingRight=3;strokeColor=none;rotatable=0;points=[[0,0.5],[1,0.5]];portConstraint=eastwest;html=1;" vertex="1" parent="1">
          <mxGeometry x="-225" y="281" width="80" height="26" as="geometry" />
        </mxCell>
        <mxCell id="xMDU6Mf7_W_wkWYFv5O9-17" value="" style="verticalAlign=top;align=left;spacingTop=8;spacingLeft=2;spacingRight=12;shape=cube;size=10;direction=south;fontStyle=4;html=1;whiteSpace=wrap;" vertex="1" parent="1">
          <mxGeometry x="-310" y="323" width="230" height="160" as="geometry" />
        </mxCell>
        <mxCell id="xMDU6Mf7_W_wkWYFv5O9-18" value="&lt;font style=&quot;font-size: 14px;&quot;&gt;&amp;lt;&amp;lt;browser&amp;gt;&amp;gt;&lt;/font&gt;" style="text;html=1;align=center;verticalAlign=middle;whiteSpace=wrap;rounded=0;" vertex="1" parent="1">
          <mxGeometry x="-230" y="333" width="60" height="30" as="geometry" />
        </mxCell>
        <mxCell id="xMDU6Mf7_W_wkWYFv5O9-19" value="" style="html=1;whiteSpace=wrap;" vertex="1" parent="1">
          <mxGeometry x="-270" y="383" width="150" height="60" as="geometry" />
        </mxCell>
        <mxCell id="xMDU6Mf7_W_wkWYFv5O9-20" value="&lt;font style=&quot;font-size: 14px;&quot;&gt;&amp;lt;&amp;lt;artifact&amp;gt;&amp;gt;&lt;/font&gt;" style="text;html=1;align=center;verticalAlign=middle;whiteSpace=wrap;rounded=0;" vertex="1" parent="1">
          <mxGeometry x="-240" y="378" width="60" height="30" as="geometry" />
        </mxCell>
        <mxCell id="xMDU6Mf7_W_wkWYFv5O9-21" value="&lt;font style=&quot;font-size: 14px;&quot;&gt;HTML5&lt;/font&gt;" style="text;align=center;fontStyle=1;verticalAlign=middle;spacingLeft=3;spacingRight=3;strokeColor=none;rotatable=0;points=[[0,0.5],[1,0.5]];portConstraint=eastwest;html=1;" vertex="1" parent="1">
          <mxGeometry x="-250" y="403" width="80" height="26" as="geometry" />
        </mxCell>
        <mxCell id="xMDU6Mf7_W_wkWYFv5O9-22" value="" style="shape=note;whiteSpace=wrap;html=1;backgroundOutline=1;darkOpacity=0.05;size=5;" vertex="1" parent="1">
          <mxGeometry x="-145" y="388" width="16" height="20" as="geometry" />
        </mxCell>
        <mxCell id="xMDU6Mf7_W_wkWYFv5O9-23" value="&lt;font style=&quot;font-size: 14px;&quot;&gt;&amp;lt;&amp;lt;execution environment&amp;gt;&amp;gt;&lt;/font&gt;" style="text;html=1;align=center;verticalAlign=middle;whiteSpace=wrap;rounded=0;" vertex="1" parent="1">
          <mxGeometry x="395" y="230" width="180" height="30" as="geometry" />
        </mxCell>
        <mxCell id="xMDU6Mf7_W_wkWYFv5O9-24" value="&lt;font style=&quot;font-size: 14px;&quot;&gt;NodeJS&lt;/font&gt;" style="text;align=center;fontStyle=1;verticalAlign=middle;spacingLeft=3;spacingRight=3;strokeColor=none;rotatable=0;points=[[0,0.5],[1,0.5]];portConstraint=eastwest;html=1;" vertex="1" parent="1">
          <mxGeometry x="440" y="253" width="80" height="26" as="geometry" />
        </mxCell>
        <mxCell id="xMDU6Mf7_W_wkWYFv5O9-25" value="" style="verticalAlign=top;align=left;spacingTop=8;spacingLeft=2;spacingRight=12;shape=cube;size=10;direction=south;fontStyle=4;html=1;whiteSpace=wrap;" vertex="1" parent="1">
          <mxGeometry x="210" y="280" width="530" height="680" as="geometry" />
        </mxCell>
        <mxCell id="xMDU6Mf7_W_wkWYFv5O9-26" value="&lt;span style=&quot;font-weight: 400;&quot;&gt;&lt;font style=&quot;font-size: 14px;&quot;&gt;&amp;lt;&amp;lt;library&amp;gt;&amp;gt;&lt;/font&gt;&lt;/span&gt;" style="text;align=center;fontStyle=1;verticalAlign=middle;spacingLeft=3;spacingRight=3;strokeColor=none;rotatable=0;points=[[0,0.5],[1,0.5]];portConstraint=eastwest;html=1;" vertex="1" parent="1">
          <mxGeometry x="441.25" y="292" width="80" height="26" as="geometry" />
        </mxCell>
        <mxCell id="xMDU6Mf7_W_wkWYFv5O9-27" value="&lt;font style=&quot;font-size: 14px;&quot;&gt;ReactJS&lt;/font&gt;" style="text;align=center;fontStyle=1;verticalAlign=middle;spacingLeft=3;spacingRight=3;strokeColor=none;rotatable=0;points=[[0,0.5],[1,0.5]];portConstraint=eastwest;html=1;" vertex="1" parent="1">
          <mxGeometry x="456.25" y="320" width="50" height="21" as="geometry" />
        </mxCell>
        <mxCell id="xMDU6Mf7_W_wkWYFv5O9-66" value="" style="verticalAlign=top;align=left;spacingTop=8;spacingLeft=2;spacingRight=12;shape=cube;size=10;direction=south;fontStyle=4;html=1;whiteSpace=wrap;" vertex="1" parent="1">
          <mxGeometry x="1120" y="216.5" width="620" height="763.5" as="geometry" />
        </mxCell>
        <mxCell id="xMDU6Mf7_W_wkWYFv5O9-67" value="&lt;font style=&quot;font-size: 14px;&quot;&gt;&amp;lt;&amp;lt;execution environment&amp;gt;&amp;gt;&lt;/font&gt;" style="text;html=1;align=center;verticalAlign=middle;whiteSpace=wrap;rounded=0;" vertex="1" parent="1">
          <mxGeometry x="1334" y="227.5" width="180" height="30" as="geometry" />
        </mxCell>
        <mxCell id="xMDU6Mf7_W_wkWYFv5O9-68" value="&lt;font style=&quot;font-size: 14px;&quot;&gt;NodeJS&lt;/font&gt;" style="text;align=center;fontStyle=1;verticalAlign=middle;spacingLeft=3;spacingRight=3;strokeColor=none;rotatable=0;points=[[0,0.5],[1,0.5]];portConstraint=eastwest;html=1;" vertex="1" parent="1">
          <mxGeometry x="1379" y="250.5" width="80" height="26" as="geometry" />
        </mxCell>
        <mxCell id="xMDU6Mf7_W_wkWYFv5O9-69" value="" style="verticalAlign=top;align=left;spacingTop=8;spacingLeft=2;spacingRight=12;shape=cube;size=10;direction=south;fontStyle=4;html=1;whiteSpace=wrap;" vertex="1" parent="1">
          <mxGeometry x="1152.5" y="276.5" width="547.5" height="663.5" as="geometry" />
        </mxCell>
        <mxCell id="xMDU6Mf7_W_wkWYFv5O9-70" value="&lt;span style=&quot;font-weight: 400;&quot;&gt;&lt;font style=&quot;font-size: 14px;&quot;&gt;&amp;lt;&amp;lt;framework&amp;gt;&amp;gt;&lt;/font&gt;&lt;/span&gt;" style="text;align=center;fontStyle=1;verticalAlign=middle;spacingLeft=3;spacingRight=3;strokeColor=none;rotatable=0;points=[[0,0.5],[1,0.5]];portConstraint=eastwest;html=1;" vertex="1" parent="1">
          <mxGeometry x="1376.25" y="290.5" width="80" height="26" as="geometry" />
        </mxCell>
        <mxCell id="xMDU6Mf7_W_wkWYFv5O9-72" value="" style="html=1;whiteSpace=wrap;" vertex="1" parent="1">
          <mxGeometry x="1180" y="363" width="194" height="67.5" as="geometry" />
        </mxCell>
        <mxCell id="xMDU6Mf7_W_wkWYFv5O9-73" value="" style="shape=module;align=left;spacingLeft=20;align=center;verticalAlign=top;whiteSpace=wrap;html=1;jettyWidth=7;jettyHeight=4;" vertex="1" parent="1">
          <mxGeometry x="1334" y="371" width="20" height="20" as="geometry" />
        </mxCell>
        <mxCell id="xMDU6Mf7_W_wkWYFv5O9-74" value="&lt;span style=&quot;font-weight: 400;&quot;&gt;&lt;font style=&quot;font-size: 14px;&quot;&gt;&amp;lt;&amp;lt;component&amp;gt;&amp;gt;&lt;/font&gt;&lt;/span&gt;" style="text;align=center;fontStyle=1;verticalAlign=middle;spacingLeft=3;spacingRight=3;strokeColor=none;rotatable=0;points=[[0,0.5],[1,0.5]];portConstraint=eastwest;html=1;" vertex="1" parent="1">
          <mxGeometry x="1224" y="367.5" width="80" height="26" as="geometry" />
        </mxCell>
        <mxCell id="xMDU6Mf7_W_wkWYFv5O9-75" value="&lt;span style=&quot;font-size: 14px;&quot;&gt;Order&amp;nbsp;&lt;br&gt;Controller&lt;/span&gt;" style="text;align=center;fontStyle=1;verticalAlign=middle;spacingLeft=3;spacingRight=3;strokeColor=none;rotatable=0;points=[[0,0.5],[1,0.5]];portConstraint=eastwest;html=1;" vertex="1" parent="1">
          <mxGeometry x="1224" y="396.5" width="80" height="26" as="geometry" />
        </mxCell>
        <mxCell id="xMDU6Mf7_W_wkWYFv5O9-76" value="" style="html=1;whiteSpace=wrap;" vertex="1" parent="1">
          <mxGeometry x="1484" y="363" width="186" height="65" as="geometry" />
        </mxCell>
        <mxCell id="xMDU6Mf7_W_wkWYFv5O9-77" value="&lt;font style=&quot;font-size: 14px;&quot;&gt;&amp;lt;&amp;lt;artifact&amp;gt;&amp;gt;&lt;/font&gt;" style="text;html=1;align=center;verticalAlign=middle;whiteSpace=wrap;rounded=0;" vertex="1" parent="1">
          <mxGeometry x="1539" y="363" width="60" height="30" as="geometry" />
        </mxCell>
        <mxCell id="xMDU6Mf7_W_wkWYFv5O9-78" value="&lt;font style=&quot;font-size: 14px;&quot;&gt;OrderController.js&lt;/font&gt;" style="text;align=center;fontStyle=1;verticalAlign=middle;spacingLeft=3;spacingRight=3;strokeColor=none;rotatable=0;points=[[0,0.5],[1,0.5]];portConstraint=eastwest;html=1;" vertex="1" parent="1">
          <mxGeometry x="1509" y="396.5" width="120" height="26" as="geometry" />
        </mxCell>
        <mxCell id="xMDU6Mf7_W_wkWYFv5O9-79" value="" style="shape=note;whiteSpace=wrap;html=1;backgroundOutline=1;darkOpacity=0.05;size=5;" vertex="1" parent="1">
          <mxGeometry x="1634" y="373" width="16" height="20" as="geometry" />
        </mxCell>
        <mxCell id="xMDU6Mf7_W_wkWYFv5O9-80" value="&amp;lt;&amp;lt;manifest&amp;gt;&amp;gt;" style="html=1;verticalAlign=bottom;endArrow=open;dashed=1;endSize=8;curved=0;rounded=0;entryX=1;entryY=0.5;entryDx=0;entryDy=0;exitX=0;exitY=0.5;exitDx=0;exitDy=0;" edge="1" parent="1" source="xMDU6Mf7_W_wkWYFv5O9-76" target="xMDU6Mf7_W_wkWYFv5O9-72">
          <mxGeometry relative="1" as="geometry">
            <mxPoint x="1464" y="395.08" as="sourcePoint" />
            <mxPoint x="1384" y="395.08" as="targetPoint" />
          </mxGeometry>
        </mxCell>
        <mxCell id="xMDU6Mf7_W_wkWYFv5O9-81" value="" style="html=1;whiteSpace=wrap;" vertex="1" parent="1">
          <mxGeometry x="1180" y="448" width="194" height="72" as="geometry" />
        </mxCell>
        <mxCell id="xMDU6Mf7_W_wkWYFv5O9-82" value="" style="shape=module;align=left;spacingLeft=20;align=center;verticalAlign=top;whiteSpace=wrap;html=1;jettyWidth=7;jettyHeight=4;" vertex="1" parent="1">
          <mxGeometry x="1334" y="456" width="20" height="20" as="geometry" />
        </mxCell>
        <mxCell id="xMDU6Mf7_W_wkWYFv5O9-83" value="&lt;span style=&quot;font-weight: 400; font-size: 14px;&quot;&gt;&amp;lt;&amp;lt;component&amp;gt;&amp;gt;&lt;/span&gt;" style="text;align=center;fontStyle=1;verticalAlign=middle;spacingLeft=3;spacingRight=3;strokeColor=none;rotatable=0;points=[[0,0.5],[1,0.5]];portConstraint=eastwest;html=1;fontSize=14;" vertex="1" parent="1">
          <mxGeometry x="1224" y="452.5" width="80" height="26" as="geometry" />
        </mxCell>
        <mxCell id="xMDU6Mf7_W_wkWYFv5O9-84" value="&lt;font style=&quot;font-size: 14px;&quot;&gt;Printer&lt;/font&gt;&lt;div&gt;&lt;span style=&quot;font-size: 14px;&quot;&gt;Controller&lt;/span&gt;&lt;/div&gt;" style="text;align=center;fontStyle=1;verticalAlign=middle;spacingLeft=3;spacingRight=3;strokeColor=none;rotatable=0;points=[[0,0.5],[1,0.5]];portConstraint=eastwest;html=1;" vertex="1" parent="1">
          <mxGeometry x="1224" y="481" width="80" height="26" as="geometry" />
        </mxCell>
        <mxCell id="xMDU6Mf7_W_wkWYFv5O9-85" value="" style="html=1;whiteSpace=wrap;" vertex="1" parent="1">
          <mxGeometry x="1484" y="449" width="186" height="69" as="geometry" />
        </mxCell>
        <mxCell id="xMDU6Mf7_W_wkWYFv5O9-86" value="&lt;font style=&quot;font-size: 14px;&quot;&gt;&amp;lt;&amp;lt;artifact&amp;gt;&amp;gt;&lt;/font&gt;" style="text;html=1;align=center;verticalAlign=middle;whiteSpace=wrap;rounded=0;" vertex="1" parent="1">
          <mxGeometry x="1539" y="448" width="60" height="30" as="geometry" />
        </mxCell>
        <mxCell id="xMDU6Mf7_W_wkWYFv5O9-87" value="&lt;font style=&quot;font-size: 14px;&quot;&gt;PrinterController.js&lt;/font&gt;" style="text;align=center;fontStyle=1;verticalAlign=middle;spacingLeft=3;spacingRight=3;strokeColor=none;rotatable=0;points=[[0,0.5],[1,0.5]];portConstraint=eastwest;html=1;" vertex="1" parent="1">
          <mxGeometry x="1529" y="481" width="80" height="26" as="geometry" />
        </mxCell>
        <mxCell id="xMDU6Mf7_W_wkWYFv5O9-88" value="" style="shape=note;whiteSpace=wrap;html=1;backgroundOutline=1;darkOpacity=0.05;size=5;" vertex="1" parent="1">
          <mxGeometry x="1634" y="458" width="16" height="20" as="geometry" />
        </mxCell>
        <mxCell id="xMDU6Mf7_W_wkWYFv5O9-89" value="&amp;lt;&amp;lt;manifest&amp;gt;&amp;gt;" style="html=1;verticalAlign=bottom;endArrow=open;dashed=1;endSize=8;curved=0;rounded=0;entryX=1;entryY=0.5;entryDx=0;entryDy=0;exitX=0;exitY=0.5;exitDx=0;exitDy=0;" edge="1" parent="1" source="xMDU6Mf7_W_wkWYFv5O9-85" target="xMDU6Mf7_W_wkWYFv5O9-81">
          <mxGeometry relative="1" as="geometry">
            <mxPoint x="1464" y="480.08" as="sourcePoint" />
            <mxPoint x="1384" y="480.08" as="targetPoint" />
          </mxGeometry>
        </mxCell>
        <mxCell id="xMDU6Mf7_W_wkWYFv5O9-90" value="" style="html=1;whiteSpace=wrap;" vertex="1" parent="1">
          <mxGeometry x="1180" y="538" width="194" height="72" as="geometry" />
        </mxCell>
        <mxCell id="xMDU6Mf7_W_wkWYFv5O9-91" value="" style="shape=module;align=left;spacingLeft=20;align=center;verticalAlign=top;whiteSpace=wrap;html=1;jettyWidth=7;jettyHeight=4;" vertex="1" parent="1">
          <mxGeometry x="1334" y="546" width="20" height="20" as="geometry" />
        </mxCell>
        <mxCell id="xMDU6Mf7_W_wkWYFv5O9-92" value="&lt;span style=&quot;font-weight: 400;&quot;&gt;&lt;font style=&quot;font-size: 14px;&quot;&gt;&amp;lt;&amp;lt;component&amp;gt;&amp;gt;&lt;/font&gt;&lt;/span&gt;" style="text;align=center;fontStyle=1;verticalAlign=middle;spacingLeft=3;spacingRight=3;strokeColor=none;rotatable=0;points=[[0,0.5],[1,0.5]];portConstraint=eastwest;html=1;" vertex="1" parent="1">
          <mxGeometry x="1224" y="542.5" width="80" height="26" as="geometry" />
        </mxCell>
        <mxCell id="xMDU6Mf7_W_wkWYFv5O9-93" value="&lt;span style=&quot;font-size: 14px;&quot;&gt;Student Controller&lt;/span&gt;" style="text;align=center;fontStyle=1;verticalAlign=middle;spacingLeft=3;spacingRight=3;strokeColor=none;rotatable=0;points=[[0,0.5],[1,0.5]];portConstraint=eastwest;html=1;" vertex="1" parent="1">
          <mxGeometry x="1200" y="571.5" width="140" height="26" as="geometry" />
        </mxCell>
        <mxCell id="xMDU6Mf7_W_wkWYFv5O9-94" value="" style="html=1;whiteSpace=wrap;" vertex="1" parent="1">
          <mxGeometry x="1484" y="538" width="186" height="72" as="geometry" />
        </mxCell>
        <mxCell id="xMDU6Mf7_W_wkWYFv5O9-95" value="&lt;font style=&quot;font-size: 14px;&quot;&gt;&amp;lt;&amp;lt;artifact&amp;gt;&amp;gt;&lt;/font&gt;" style="text;html=1;align=center;verticalAlign=middle;whiteSpace=wrap;rounded=0;" vertex="1" parent="1">
          <mxGeometry x="1539" y="538" width="60" height="30" as="geometry" />
        </mxCell>
        <mxCell id="xMDU6Mf7_W_wkWYFv5O9-96" value="&lt;span style=&quot;font-size: 14px;&quot;&gt;StudentController.js&lt;/span&gt;" style="text;align=center;fontStyle=1;verticalAlign=middle;spacingLeft=3;spacingRight=3;strokeColor=none;rotatable=0;points=[[0,0.5],[1,0.5]];portConstraint=eastwest;html=1;" vertex="1" parent="1">
          <mxGeometry x="1529" y="571" width="80" height="26" as="geometry" />
        </mxCell>
        <mxCell id="xMDU6Mf7_W_wkWYFv5O9-97" value="" style="shape=note;whiteSpace=wrap;html=1;backgroundOutline=1;darkOpacity=0.05;size=5;" vertex="1" parent="1">
          <mxGeometry x="1634" y="548" width="16" height="20" as="geometry" />
        </mxCell>
        <mxCell id="xMDU6Mf7_W_wkWYFv5O9-98" value="&amp;lt;&amp;lt;manifest&amp;gt;&amp;gt;" style="html=1;verticalAlign=bottom;endArrow=open;dashed=1;endSize=8;curved=0;rounded=0;entryX=1;entryY=0.5;entryDx=0;entryDy=0;exitX=0;exitY=0.5;exitDx=0;exitDy=0;" edge="1" parent="1" source="xMDU6Mf7_W_wkWYFv5O9-94" target="xMDU6Mf7_W_wkWYFv5O9-90">
          <mxGeometry relative="1" as="geometry">
            <mxPoint x="1464" y="570.0799999999999" as="sourcePoint" />
            <mxPoint x="1384" y="570.0799999999999" as="targetPoint" />
          </mxGeometry>
        </mxCell>
        <mxCell id="xMDU6Mf7_W_wkWYFv5O9-99" value="&lt;span style=&quot;font-size: 14px;&quot;&gt;ExpressJS&lt;/span&gt;" style="text;align=center;fontStyle=1;verticalAlign=middle;spacingLeft=3;spacingRight=3;strokeColor=none;rotatable=0;points=[[0,0.5],[1,0.5]];portConstraint=eastwest;html=1;" vertex="1" parent="1">
          <mxGeometry x="1391.25" y="316.5" width="50" height="21" as="geometry" />
        </mxCell>
        <mxCell id="xMDU6Mf7_W_wkWYFv5O9-101" value="&lt;font style=&quot;font-size: 14px;&quot;&gt;&amp;lt;&amp;lt;server&amp;gt;&amp;gt;&lt;/font&gt;" style="text;html=1;align=center;verticalAlign=middle;whiteSpace=wrap;rounded=0;" vertex="1" parent="1">
          <mxGeometry x="1394" y="159" width="60" height="30" as="geometry" />
        </mxCell>
        <mxCell id="xMDU6Mf7_W_wkWYFv5O9-102" value="&lt;font style=&quot;font-size: 14px;&quot;&gt;Application server&lt;/font&gt;" style="text;align=center;fontStyle=1;verticalAlign=middle;spacingLeft=3;spacingRight=3;strokeColor=none;rotatable=0;points=[[0,0.5],[1,0.5]];portConstraint=eastwest;html=1;" vertex="1" parent="1">
          <mxGeometry x="1384" y="179" width="80" height="26" as="geometry" />
        </mxCell>
        <mxCell id="xMDU6Mf7_W_wkWYFv5O9-118" value="" style="verticalAlign=top;align=left;spacingTop=8;spacingLeft=2;spacingRight=12;shape=cube;size=10;direction=south;fontStyle=4;html=1;whiteSpace=wrap;" vertex="1" parent="1">
          <mxGeometry x="1150" y="1080" width="550" height="530" as="geometry" />
        </mxCell>
        <mxCell id="xMDU6Mf7_W_wkWYFv5O9-119" value="" style="verticalAlign=top;align=left;spacingTop=8;spacingLeft=2;spacingRight=12;shape=cube;size=10;direction=south;fontStyle=4;html=1;whiteSpace=wrap;" vertex="1" parent="1">
          <mxGeometry x="1200" y="1145" width="420" height="425" as="geometry" />
        </mxCell>
        <mxCell id="xMDU6Mf7_W_wkWYFv5O9-120" value="&lt;font style=&quot;font-size: 14px;&quot;&gt;&amp;lt;&amp;lt;execution environment&amp;gt;&amp;gt;&lt;/font&gt;" style="text;html=1;align=center;verticalAlign=middle;whiteSpace=wrap;rounded=0;" vertex="1" parent="1">
          <mxGeometry x="1320" y="1165" width="180" height="30" as="geometry" />
        </mxCell>
        <mxCell id="xMDU6Mf7_W_wkWYFv5O9-121" value="&lt;font style=&quot;font-size: 14px;&quot;&gt;MongoDB&lt;/font&gt;" style="text;align=center;fontStyle=1;verticalAlign=middle;spacingLeft=3;spacingRight=3;strokeColor=none;rotatable=0;points=[[0,0.5],[1,0.5]];portConstraint=eastwest;html=1;" vertex="1" parent="1">
          <mxGeometry x="1365" y="1188" width="80" height="26" as="geometry" />
        </mxCell>
        <mxCell id="xMDU6Mf7_W_wkWYFv5O9-152" value="&lt;font style=&quot;font-size: 14px;&quot;&gt;&amp;lt;&amp;lt;server&amp;gt;&amp;gt;&lt;/font&gt;" style="text;html=1;align=center;verticalAlign=middle;whiteSpace=wrap;rounded=0;" vertex="1" parent="1">
          <mxGeometry x="1380" y="1094" width="60" height="30" as="geometry" />
        </mxCell>
        <mxCell id="xMDU6Mf7_W_wkWYFv5O9-153" value="&lt;font style=&quot;font-size: 14px;&quot;&gt;Database server&lt;/font&gt;" style="text;align=center;fontStyle=1;verticalAlign=middle;spacingLeft=3;spacingRight=3;strokeColor=none;rotatable=0;points=[[0,0.5],[1,0.5]];portConstraint=eastwest;html=1;" vertex="1" parent="1">
          <mxGeometry x="1370" y="1114" width="80" height="26" as="geometry" />
        </mxCell>
        <mxCell id="xMDU6Mf7_W_wkWYFv5O9-157" value="&amp;lt;&amp;lt;REST API&amp;gt;&amp;gt;" style="endArrow=classic;html=1;rounded=0;fontSize=15;" edge="1" parent="1">
          <mxGeometry x="0.0059" relative="1" as="geometry">
            <mxPoint x="780" y="445" as="sourcePoint" />
            <mxPoint x="1118" y="445" as="targetPoint" />
            <mxPoint as="offset" />
          </mxGeometry>
        </mxCell>
        <mxCell id="xMDU6Mf7_W_wkWYFv5O9-160" value="&amp;lt;&amp;lt;Protocol&amp;gt;&amp;gt;&lt;div&gt;TCP/IP&lt;/div&gt;" style="endArrow=classic;html=1;rounded=0;entryX=0.252;entryY=0.001;entryDx=0;entryDy=0;entryPerimeter=0;fontSize=15;exitX=0.724;exitY=0.001;exitDx=0;exitDy=0;exitPerimeter=0;" edge="1" parent="1" source="xMDU6Mf7_W_wkWYFv5O9-66" target="xMDU6Mf7_W_wkWYFv5O9-119">
          <mxGeometry relative="1" as="geometry">
            <mxPoint x="1880" y="861" as="sourcePoint" />
            <mxPoint x="2221" y="860" as="targetPoint" />
            <Array as="points">
              <mxPoint x="2000" y="769" />
              <mxPoint x="2000" y="1252" />
            </Array>
          </mxGeometry>
        </mxCell>
        <mxCell id="xMDU6Mf7_W_wkWYFv5O9-161" value="&amp;lt;&amp;lt;HTTP/HTTPS&amp;gt;&amp;gt;" style="endArrow=classic;html=1;rounded=0;fontSize=15;entryX=0.232;entryY=1.003;entryDx=0;entryDy=0;entryPerimeter=0;" edge="1" parent="1" target="xMDU6Mf7_W_wkWYFv5O9-7">
          <mxGeometry x="0.0027" relative="1" as="geometry">
            <mxPoint x="-30" y="403" as="sourcePoint" />
            <mxPoint x="200" y="403" as="targetPoint" />
            <mxPoint as="offset" />
          </mxGeometry>
        </mxCell>
        <mxCell id="LKvH6PIUfFhSIlMl65G8-5" value="" style="rounded=0;whiteSpace=wrap;html=1;" vertex="1" parent="1">
          <mxGeometry x="1241" y="1250" width="139" height="70" as="geometry" />
        </mxCell>
        <mxCell id="LKvH6PIUfFhSIlMl65G8-7" value="&lt;font style=&quot;font-size: 14px;&quot;&gt;&amp;lt;&amp;lt;schema&amp;gt;&amp;gt;&lt;/font&gt;" style="text;html=1;align=center;verticalAlign=middle;whiteSpace=wrap;rounded=0;" vertex="1" parent="1">
          <mxGeometry x="1280.5" y="1260" width="60" height="30" as="geometry" />
        </mxCell>
        <mxCell id="LKvH6PIUfFhSIlMl65G8-8" value="&lt;font style=&quot;font-size: 14px;&quot;&gt;&lt;b&gt;SPSO&lt;/b&gt;&lt;/font&gt;" style="text;html=1;align=center;verticalAlign=middle;whiteSpace=wrap;rounded=0;" vertex="1" parent="1">
          <mxGeometry x="1280" y="1280" width="60" height="30" as="geometry" />
        </mxCell>
        <mxCell id="LKvH6PIUfFhSIlMl65G8-9" value="" style="rounded=0;whiteSpace=wrap;html=1;" vertex="1" parent="1">
          <mxGeometry x="1430" y="1250" width="139" height="70" as="geometry" />
        </mxCell>
        <mxCell id="LKvH6PIUfFhSIlMl65G8-10" value="&lt;font style=&quot;font-size: 14px;&quot;&gt;&amp;lt;&amp;lt;schema&amp;gt;&amp;gt;&lt;/font&gt;" style="text;html=1;align=center;verticalAlign=middle;whiteSpace=wrap;rounded=0;" vertex="1" parent="1">
          <mxGeometry x="1469.5" y="1260" width="60" height="30" as="geometry" />
        </mxCell>
        <mxCell id="LKvH6PIUfFhSIlMl65G8-11" value="&lt;span style=&quot;font-size: 14px;&quot;&gt;&lt;b&gt;Student&lt;/b&gt;&lt;/span&gt;" style="text;html=1;align=center;verticalAlign=middle;whiteSpace=wrap;rounded=0;" vertex="1" parent="1">
          <mxGeometry x="1469" y="1280" width="60" height="30" as="geometry" />
        </mxCell>
        <mxCell id="LKvH6PIUfFhSIlMl65G8-12" value="" style="rounded=0;whiteSpace=wrap;html=1;" vertex="1" parent="1">
          <mxGeometry x="1241" y="1350" width="139" height="70" as="geometry" />
        </mxCell>
        <mxCell id="LKvH6PIUfFhSIlMl65G8-13" value="&lt;font style=&quot;font-size: 14px;&quot;&gt;&amp;lt;&amp;lt;schema&amp;gt;&amp;gt;&lt;/font&gt;" style="text;html=1;align=center;verticalAlign=middle;whiteSpace=wrap;rounded=0;" vertex="1" parent="1">
          <mxGeometry x="1280.5" y="1360" width="60" height="30" as="geometry" />
        </mxCell>
        <mxCell id="LKvH6PIUfFhSIlMl65G8-14" value="&lt;font style=&quot;font-size: 14px;&quot;&gt;&lt;b&gt;Printer&lt;/b&gt;&lt;/font&gt;" style="text;html=1;align=center;verticalAlign=middle;whiteSpace=wrap;rounded=0;" vertex="1" parent="1">
          <mxGeometry x="1280" y="1380" width="60" height="30" as="geometry" />
        </mxCell>
        <mxCell id="LKvH6PIUfFhSIlMl65G8-15" value="" style="rounded=0;whiteSpace=wrap;html=1;" vertex="1" parent="1">
          <mxGeometry x="1430" y="1350" width="139" height="70" as="geometry" />
        </mxCell>
        <mxCell id="LKvH6PIUfFhSIlMl65G8-16" value="&lt;font style=&quot;font-size: 14px;&quot;&gt;&amp;lt;&amp;lt;schema&amp;gt;&amp;gt;&lt;/font&gt;" style="text;html=1;align=center;verticalAlign=middle;whiteSpace=wrap;rounded=0;" vertex="1" parent="1">
          <mxGeometry x="1469.5" y="1360" width="60" height="30" as="geometry" />
        </mxCell>
        <mxCell id="LKvH6PIUfFhSIlMl65G8-17" value="&lt;font style=&quot;font-size: 14px;&quot;&gt;&lt;b&gt;Document&lt;/b&gt;&lt;/font&gt;" style="text;html=1;align=center;verticalAlign=middle;whiteSpace=wrap;rounded=0;" vertex="1" parent="1">
          <mxGeometry x="1469" y="1380" width="60" height="30" as="geometry" />
        </mxCell>
        <mxCell id="LKvH6PIUfFhSIlMl65G8-18" value="" style="rounded=0;whiteSpace=wrap;html=1;" vertex="1" parent="1">
          <mxGeometry x="1241" y="1450" width="139" height="70" as="geometry" />
        </mxCell>
        <mxCell id="LKvH6PIUfFhSIlMl65G8-19" value="&lt;font style=&quot;font-size: 14px;&quot;&gt;&amp;lt;&amp;lt;schema&amp;gt;&amp;gt;&lt;/font&gt;" style="text;html=1;align=center;verticalAlign=middle;whiteSpace=wrap;rounded=0;" vertex="1" parent="1">
          <mxGeometry x="1280.5" y="1460" width="60" height="30" as="geometry" />
        </mxCell>
        <mxCell id="LKvH6PIUfFhSIlMl65G8-20" value="&lt;span style=&quot;font-size: 14px;&quot;&gt;&lt;b&gt;PrintOrder&lt;/b&gt;&lt;/span&gt;" style="text;html=1;align=center;verticalAlign=middle;whiteSpace=wrap;rounded=0;" vertex="1" parent="1">
          <mxGeometry x="1255" y="1480" width="110" height="30" as="geometry" />
        </mxCell>
        <mxCell id="LKvH6PIUfFhSIlMl65G8-21" value="" style="rounded=0;whiteSpace=wrap;html=1;" vertex="1" parent="1">
          <mxGeometry x="1430" y="1450" width="139" height="70" as="geometry" />
        </mxCell>
        <mxCell id="LKvH6PIUfFhSIlMl65G8-22" value="&lt;font style=&quot;font-size: 14px;&quot;&gt;&amp;lt;&amp;lt;schema&amp;gt;&amp;gt;&lt;/font&gt;" style="text;html=1;align=center;verticalAlign=middle;whiteSpace=wrap;rounded=0;" vertex="1" parent="1">
          <mxGeometry x="1469.5" y="1460" width="60" height="30" as="geometry" />
        </mxCell>
        <mxCell id="LKvH6PIUfFhSIlMl65G8-23" value="&lt;font style=&quot;font-size: 14px;&quot;&gt;&lt;b&gt;PageOrder&lt;/b&gt;&lt;/font&gt;" style="text;html=1;align=center;verticalAlign=middle;whiteSpace=wrap;rounded=0;" vertex="1" parent="1">
          <mxGeometry x="1465" y="1480" width="79" height="30" as="geometry" />
        </mxCell>
        <mxCell id="aDMoCFPMf9zaNoa19dLN-1" value="" style="html=1;whiteSpace=wrap;" vertex="1" parent="1">
          <mxGeometry x="1181.25" y="630" width="194" height="72" as="geometry" />
        </mxCell>
        <mxCell id="aDMoCFPMf9zaNoa19dLN-2" value="" style="shape=module;align=left;spacingLeft=20;align=center;verticalAlign=top;whiteSpace=wrap;html=1;jettyWidth=7;jettyHeight=4;" vertex="1" parent="1">
          <mxGeometry x="1335.25" y="638" width="20" height="20" as="geometry" />
        </mxCell>
        <mxCell id="aDMoCFPMf9zaNoa19dLN-3" value="&lt;span style=&quot;font-weight: 400;&quot;&gt;&lt;font style=&quot;font-size: 14px;&quot;&gt;&amp;lt;&amp;lt;component&amp;gt;&amp;gt;&lt;/font&gt;&lt;/span&gt;" style="text;align=center;fontStyle=1;verticalAlign=middle;spacingLeft=3;spacingRight=3;strokeColor=none;rotatable=0;points=[[0,0.5],[1,0.5]];portConstraint=eastwest;html=1;" vertex="1" parent="1">
          <mxGeometry x="1225.25" y="634.5" width="80" height="26" as="geometry" />
        </mxCell>
        <mxCell id="aDMoCFPMf9zaNoa19dLN-5" value="" style="html=1;whiteSpace=wrap;" vertex="1" parent="1">
          <mxGeometry x="1485.25" y="630" width="186" height="72" as="geometry" />
        </mxCell>
        <mxCell id="aDMoCFPMf9zaNoa19dLN-6" value="&lt;font style=&quot;font-size: 14px;&quot;&gt;&amp;lt;&amp;lt;artifact&amp;gt;&amp;gt;&lt;/font&gt;" style="text;html=1;align=center;verticalAlign=middle;whiteSpace=wrap;rounded=0;" vertex="1" parent="1">
          <mxGeometry x="1540.25" y="630" width="60" height="30" as="geometry" />
        </mxCell>
        <mxCell id="aDMoCFPMf9zaNoa19dLN-7" value="&lt;span style=&quot;font-size: 14px;&quot;&gt;SPSOController.js&lt;/span&gt;" style="text;align=center;fontStyle=1;verticalAlign=middle;spacingLeft=3;spacingRight=3;strokeColor=none;rotatable=0;points=[[0,0.5],[1,0.5]];portConstraint=eastwest;html=1;" vertex="1" parent="1">
          <mxGeometry x="1530.25" y="663" width="80" height="26" as="geometry" />
        </mxCell>
        <mxCell id="aDMoCFPMf9zaNoa19dLN-8" value="" style="shape=note;whiteSpace=wrap;html=1;backgroundOutline=1;darkOpacity=0.05;size=5;" vertex="1" parent="1">
          <mxGeometry x="1635.25" y="640" width="16" height="20" as="geometry" />
        </mxCell>
        <mxCell id="aDMoCFPMf9zaNoa19dLN-9" value="&amp;lt;&amp;lt;manifest&amp;gt;&amp;gt;" style="html=1;verticalAlign=bottom;endArrow=open;dashed=1;endSize=8;curved=0;rounded=0;entryX=1;entryY=0.5;entryDx=0;entryDy=0;exitX=0;exitY=0.5;exitDx=0;exitDy=0;" edge="1" parent="1" source="aDMoCFPMf9zaNoa19dLN-5" target="aDMoCFPMf9zaNoa19dLN-1">
          <mxGeometry relative="1" as="geometry">
            <mxPoint x="1465.25" y="662.0799999999999" as="sourcePoint" />
            <mxPoint x="1385.25" y="662.0799999999999" as="targetPoint" />
          </mxGeometry>
        </mxCell>
        <mxCell id="aDMoCFPMf9zaNoa19dLN-10" value="" style="html=1;whiteSpace=wrap;" vertex="1" parent="1">
          <mxGeometry x="1180" y="730" width="194" height="72" as="geometry" />
        </mxCell>
        <mxCell id="aDMoCFPMf9zaNoa19dLN-11" value="" style="shape=module;align=left;spacingLeft=20;align=center;verticalAlign=top;whiteSpace=wrap;html=1;jettyWidth=7;jettyHeight=4;" vertex="1" parent="1">
          <mxGeometry x="1334" y="738" width="20" height="20" as="geometry" />
        </mxCell>
        <mxCell id="aDMoCFPMf9zaNoa19dLN-12" value="&lt;span style=&quot;font-weight: 400;&quot;&gt;&lt;font style=&quot;font-size: 14px;&quot;&gt;&amp;lt;&amp;lt;component&amp;gt;&amp;gt;&lt;/font&gt;&lt;/span&gt;" style="text;align=center;fontStyle=1;verticalAlign=middle;spacingLeft=3;spacingRight=3;strokeColor=none;rotatable=0;points=[[0,0.5],[1,0.5]];portConstraint=eastwest;html=1;" vertex="1" parent="1">
          <mxGeometry x="1224" y="734.5" width="80" height="26" as="geometry" />
        </mxCell>
        <mxCell id="aDMoCFPMf9zaNoa19dLN-13" value="&lt;span style=&quot;font-size: 14px;&quot;&gt;Authentication&amp;nbsp;&lt;br&gt;Controller&lt;/span&gt;" style="text;align=center;fontStyle=1;verticalAlign=middle;spacingLeft=3;spacingRight=3;strokeColor=none;rotatable=0;points=[[0,0.5],[1,0.5]];portConstraint=eastwest;html=1;" vertex="1" parent="1">
          <mxGeometry x="1224" y="763" width="80" height="26" as="geometry" />
        </mxCell>
        <mxCell id="aDMoCFPMf9zaNoa19dLN-14" value="" style="html=1;whiteSpace=wrap;" vertex="1" parent="1">
          <mxGeometry x="1484" y="730" width="186" height="72" as="geometry" />
        </mxCell>
        <mxCell id="aDMoCFPMf9zaNoa19dLN-15" value="&lt;font style=&quot;font-size: 14px;&quot;&gt;&amp;lt;&amp;lt;artifact&amp;gt;&amp;gt;&lt;/font&gt;" style="text;html=1;align=center;verticalAlign=middle;whiteSpace=wrap;rounded=0;" vertex="1" parent="1">
          <mxGeometry x="1539" y="730" width="60" height="30" as="geometry" />
        </mxCell>
        <mxCell id="aDMoCFPMf9zaNoa19dLN-16" value="&lt;span style=&quot;font-size: 14px;&quot;&gt;AuthController.js&lt;/span&gt;" style="text;align=center;fontStyle=1;verticalAlign=middle;spacingLeft=3;spacingRight=3;strokeColor=none;rotatable=0;points=[[0,0.5],[1,0.5]];portConstraint=eastwest;html=1;" vertex="1" parent="1">
          <mxGeometry x="1529" y="763" width="80" height="26" as="geometry" />
        </mxCell>
        <mxCell id="aDMoCFPMf9zaNoa19dLN-17" value="" style="shape=note;whiteSpace=wrap;html=1;backgroundOutline=1;darkOpacity=0.05;size=5;" vertex="1" parent="1">
          <mxGeometry x="1634" y="740" width="16" height="20" as="geometry" />
        </mxCell>
        <mxCell id="aDMoCFPMf9zaNoa19dLN-18" value="&amp;lt;&amp;lt;manifest&amp;gt;&amp;gt;" style="html=1;verticalAlign=bottom;endArrow=open;dashed=1;endSize=8;curved=0;rounded=0;entryX=1;entryY=0.5;entryDx=0;entryDy=0;exitX=0;exitY=0.5;exitDx=0;exitDy=0;" edge="1" parent="1" source="aDMoCFPMf9zaNoa19dLN-14" target="aDMoCFPMf9zaNoa19dLN-10">
          <mxGeometry relative="1" as="geometry">
            <mxPoint x="1464" y="762.0799999999999" as="sourcePoint" />
            <mxPoint x="1384" y="762.0799999999999" as="targetPoint" />
          </mxGeometry>
        </mxCell>
        <mxCell id="aDMoCFPMf9zaNoa19dLN-19" value="&lt;span style=&quot;font-size: 14px;&quot;&gt;SPSO Controller&lt;/span&gt;" style="text;align=center;fontStyle=1;verticalAlign=middle;spacingLeft=3;spacingRight=3;strokeColor=none;rotatable=0;points=[[0,0.5],[1,0.5]];portConstraint=eastwest;html=1;" vertex="1" parent="1">
          <mxGeometry x="1195.25" y="660" width="140" height="26" as="geometry" />
        </mxCell>
        <mxCell id="aDMoCFPMf9zaNoa19dLN-20" value="" style="html=1;whiteSpace=wrap;" vertex="1" parent="1">
          <mxGeometry x="1181.25" y="840" width="194" height="72" as="geometry" />
        </mxCell>
        <mxCell id="aDMoCFPMf9zaNoa19dLN-21" value="" style="shape=module;align=left;spacingLeft=20;align=center;verticalAlign=top;whiteSpace=wrap;html=1;jettyWidth=7;jettyHeight=4;" vertex="1" parent="1">
          <mxGeometry x="1335.25" y="848" width="20" height="20" as="geometry" />
        </mxCell>
        <mxCell id="aDMoCFPMf9zaNoa19dLN-22" value="&lt;span style=&quot;font-weight: 400;&quot;&gt;&lt;font style=&quot;font-size: 14px;&quot;&gt;&amp;lt;&amp;lt;component&amp;gt;&amp;gt;&lt;/font&gt;&lt;/span&gt;" style="text;align=center;fontStyle=1;verticalAlign=middle;spacingLeft=3;spacingRight=3;strokeColor=none;rotatable=0;points=[[0,0.5],[1,0.5]];portConstraint=eastwest;html=1;" vertex="1" parent="1">
          <mxGeometry x="1225.25" y="844.5" width="80" height="26" as="geometry" />
        </mxCell>
        <mxCell id="aDMoCFPMf9zaNoa19dLN-23" value="&lt;span style=&quot;font-size: 14px;&quot;&gt;Report&lt;br&gt;Controller&lt;/span&gt;" style="text;align=center;fontStyle=1;verticalAlign=middle;spacingLeft=3;spacingRight=3;strokeColor=none;rotatable=0;points=[[0,0.5],[1,0.5]];portConstraint=eastwest;html=1;" vertex="1" parent="1">
          <mxGeometry x="1225.25" y="873" width="80" height="26" as="geometry" />
        </mxCell>
        <mxCell id="aDMoCFPMf9zaNoa19dLN-24" value="" style="html=1;whiteSpace=wrap;" vertex="1" parent="1">
          <mxGeometry x="1485.25" y="840" width="186" height="72" as="geometry" />
        </mxCell>
        <mxCell id="aDMoCFPMf9zaNoa19dLN-25" value="&lt;font style=&quot;font-size: 14px;&quot;&gt;&amp;lt;&amp;lt;artifact&amp;gt;&amp;gt;&lt;/font&gt;" style="text;html=1;align=center;verticalAlign=middle;whiteSpace=wrap;rounded=0;" vertex="1" parent="1">
          <mxGeometry x="1540.25" y="840" width="60" height="30" as="geometry" />
        </mxCell>
        <mxCell id="aDMoCFPMf9zaNoa19dLN-26" value="&lt;span style=&quot;font-size: 14px;&quot;&gt;ReportController.js&lt;/span&gt;" style="text;align=center;fontStyle=1;verticalAlign=middle;spacingLeft=3;spacingRight=3;strokeColor=none;rotatable=0;points=[[0,0.5],[1,0.5]];portConstraint=eastwest;html=1;" vertex="1" parent="1">
          <mxGeometry x="1530.25" y="868" width="80" height="26" as="geometry" />
        </mxCell>
        <mxCell id="aDMoCFPMf9zaNoa19dLN-27" value="" style="shape=note;whiteSpace=wrap;html=1;backgroundOutline=1;darkOpacity=0.05;size=5;" vertex="1" parent="1">
          <mxGeometry x="1635.25" y="850" width="16" height="20" as="geometry" />
        </mxCell>
        <mxCell id="aDMoCFPMf9zaNoa19dLN-28" value="&amp;lt;&amp;lt;manifest&amp;gt;&amp;gt;" style="html=1;verticalAlign=bottom;endArrow=open;dashed=1;endSize=8;curved=0;rounded=0;entryX=1;entryY=0.5;entryDx=0;entryDy=0;exitX=0;exitY=0.5;exitDx=0;exitDy=0;" edge="1" parent="1" source="aDMoCFPMf9zaNoa19dLN-24" target="aDMoCFPMf9zaNoa19dLN-20">
          <mxGeometry relative="1" as="geometry">
            <mxPoint x="1465.25" y="872.0799999999999" as="sourcePoint" />
            <mxPoint x="1385.25" y="872.0799999999999" as="targetPoint" />
          </mxGeometry>
        </mxCell>
        <mxCell id="aDMoCFPMf9zaNoa19dLN-39" value="" style="html=1;whiteSpace=wrap;" vertex="1" parent="1">
          <mxGeometry x="240" y="378" width="190" height="65" as="geometry" />
        </mxCell>
        <mxCell id="aDMoCFPMf9zaNoa19dLN-40" value="" style="shape=module;align=left;spacingLeft=20;align=center;verticalAlign=top;whiteSpace=wrap;html=1;jettyWidth=7;jettyHeight=4;" vertex="1" parent="1">
          <mxGeometry x="390" y="386" width="20" height="20" as="geometry" />
        </mxCell>
        <mxCell id="aDMoCFPMf9zaNoa19dLN-41" value="&lt;span style=&quot;font-weight: 400;&quot;&gt;&lt;font style=&quot;font-size: 14px;&quot;&gt;&amp;lt;&amp;lt;component&amp;gt;&amp;gt;&lt;/font&gt;&lt;/span&gt;" style="text;align=center;fontStyle=1;verticalAlign=middle;spacingLeft=3;spacingRight=3;strokeColor=none;rotatable=0;points=[[0,0.5],[1,0.5]];portConstraint=eastwest;html=1;" vertex="1" parent="1">
          <mxGeometry x="280" y="382.5" width="80" height="26" as="geometry" />
        </mxCell>
        <mxCell id="aDMoCFPMf9zaNoa19dLN-42" value="&lt;font style=&quot;font-size: 14px;&quot;&gt;Printing View&amp;nbsp;&lt;/font&gt;" style="text;align=center;fontStyle=1;verticalAlign=middle;spacingLeft=3;spacingRight=3;strokeColor=none;rotatable=0;points=[[0,0.5],[1,0.5]];portConstraint=eastwest;html=1;" vertex="1" parent="1">
          <mxGeometry x="280" y="403" width="80" height="26" as="geometry" />
        </mxCell>
        <mxCell id="aDMoCFPMf9zaNoa19dLN-43" value="" style="html=1;whiteSpace=wrap;" vertex="1" parent="1">
          <mxGeometry x="540" y="378" width="170" height="65" as="geometry" />
        </mxCell>
        <mxCell id="aDMoCFPMf9zaNoa19dLN-44" value="&lt;font style=&quot;font-size: 14px;&quot;&gt;&amp;lt;&amp;lt;artifact&amp;gt;&amp;gt;&lt;/font&gt;" style="text;html=1;align=center;verticalAlign=middle;whiteSpace=wrap;rounded=0;" vertex="1" parent="1">
          <mxGeometry x="595" y="378" width="60" height="30" as="geometry" />
        </mxCell>
        <mxCell id="aDMoCFPMf9zaNoa19dLN-45" value="&lt;span style=&quot;font-size: 14px;&quot;&gt;PrintingView.js&lt;/span&gt;" style="text;align=center;fontStyle=1;verticalAlign=middle;spacingLeft=3;spacingRight=3;strokeColor=none;rotatable=0;points=[[0,0.5],[1,0.5]];portConstraint=eastwest;html=1;" vertex="1" parent="1">
          <mxGeometry x="585" y="403" width="80" height="26" as="geometry" />
        </mxCell>
        <mxCell id="aDMoCFPMf9zaNoa19dLN-46" value="" style="shape=note;whiteSpace=wrap;html=1;backgroundOutline=1;darkOpacity=0.05;size=5;" vertex="1" parent="1">
          <mxGeometry x="690" y="388" width="16" height="20" as="geometry" />
        </mxCell>
        <mxCell id="aDMoCFPMf9zaNoa19dLN-47" value="&amp;lt;&amp;lt;manifest&amp;gt;&amp;gt;" style="html=1;verticalAlign=bottom;endArrow=open;dashed=1;endSize=8;curved=0;rounded=0;entryX=1;entryY=0.5;entryDx=0;entryDy=0;exitX=0;exitY=0.5;exitDx=0;exitDy=0;" edge="1" parent="1" source="aDMoCFPMf9zaNoa19dLN-43" target="aDMoCFPMf9zaNoa19dLN-39">
          <mxGeometry relative="1" as="geometry">
            <mxPoint x="520" y="410.0799999999999" as="sourcePoint" />
            <mxPoint x="440" y="410.0799999999999" as="targetPoint" />
          </mxGeometry>
        </mxCell>
        <mxCell id="aDMoCFPMf9zaNoa19dLN-48" value="" style="html=1;whiteSpace=wrap;" vertex="1" parent="1">
          <mxGeometry x="240" y="463" width="190" height="65" as="geometry" />
        </mxCell>
        <mxCell id="aDMoCFPMf9zaNoa19dLN-49" value="" style="shape=module;align=left;spacingLeft=20;align=center;verticalAlign=top;whiteSpace=wrap;html=1;jettyWidth=7;jettyHeight=4;" vertex="1" parent="1">
          <mxGeometry x="390" y="471" width="20" height="20" as="geometry" />
        </mxCell>
        <mxCell id="aDMoCFPMf9zaNoa19dLN-50" value="&lt;span style=&quot;font-weight: 400; font-size: 14px;&quot;&gt;&amp;lt;&amp;lt;component&amp;gt;&amp;gt;&lt;/span&gt;" style="text;align=center;fontStyle=1;verticalAlign=middle;spacingLeft=3;spacingRight=3;strokeColor=none;rotatable=0;points=[[0,0.5],[1,0.5]];portConstraint=eastwest;html=1;fontSize=14;" vertex="1" parent="1">
          <mxGeometry x="280" y="467.5" width="80" height="26" as="geometry" />
        </mxCell>
        <mxCell id="aDMoCFPMf9zaNoa19dLN-51" value="" style="html=1;whiteSpace=wrap;" vertex="1" parent="1">
          <mxGeometry x="540" y="463" width="170" height="65" as="geometry" />
        </mxCell>
        <mxCell id="aDMoCFPMf9zaNoa19dLN-52" value="&lt;font style=&quot;font-size: 14px;&quot;&gt;&amp;lt;&amp;lt;artifact&amp;gt;&amp;gt;&lt;/font&gt;" style="text;html=1;align=center;verticalAlign=middle;whiteSpace=wrap;rounded=0;" vertex="1" parent="1">
          <mxGeometry x="595" y="463" width="60" height="30" as="geometry" />
        </mxCell>
        <mxCell id="aDMoCFPMf9zaNoa19dLN-53" value="&lt;span style=&quot;font-size: 14px;&quot;&gt;PrinterView.js&lt;/span&gt;" style="text;align=center;fontStyle=1;verticalAlign=middle;spacingLeft=3;spacingRight=3;strokeColor=none;rotatable=0;points=[[0,0.5],[1,0.5]];portConstraint=eastwest;html=1;" vertex="1" parent="1">
          <mxGeometry x="585" y="491" width="80" height="26" as="geometry" />
        </mxCell>
        <mxCell id="aDMoCFPMf9zaNoa19dLN-54" value="" style="shape=note;whiteSpace=wrap;html=1;backgroundOutline=1;darkOpacity=0.05;size=5;" vertex="1" parent="1">
          <mxGeometry x="690" y="473" width="16" height="20" as="geometry" />
        </mxCell>
        <mxCell id="aDMoCFPMf9zaNoa19dLN-55" value="&amp;lt;&amp;lt;manifest&amp;gt;&amp;gt;" style="html=1;verticalAlign=bottom;endArrow=open;dashed=1;endSize=8;curved=0;rounded=0;entryX=1;entryY=0.5;entryDx=0;entryDy=0;exitX=0;exitY=0.5;exitDx=0;exitDy=0;" edge="1" parent="1" source="aDMoCFPMf9zaNoa19dLN-51" target="aDMoCFPMf9zaNoa19dLN-48">
          <mxGeometry relative="1" as="geometry">
            <mxPoint x="520" y="495.0799999999999" as="sourcePoint" />
            <mxPoint x="440" y="495.0799999999999" as="targetPoint" />
          </mxGeometry>
        </mxCell>
        <mxCell id="aDMoCFPMf9zaNoa19dLN-56" value="&lt;span style=&quot;font-size: 14px;&quot;&gt;Printer Management&lt;/span&gt;&lt;div&gt;&lt;span style=&quot;font-size: 14px;&quot;&gt;View&lt;/span&gt;&lt;/div&gt;" style="text;align=center;fontStyle=1;verticalAlign=middle;spacingLeft=3;spacingRight=3;strokeColor=none;rotatable=0;points=[[0,0.5],[1,0.5]];portConstraint=eastwest;html=1;" vertex="1" parent="1">
          <mxGeometry x="280" y="493.5" width="80" height="26" as="geometry" />
        </mxCell>
        <mxCell id="aDMoCFPMf9zaNoa19dLN-57" value="" style="html=1;whiteSpace=wrap;" vertex="1" parent="1">
          <mxGeometry x="240" y="551" width="190" height="65" as="geometry" />
        </mxCell>
        <mxCell id="aDMoCFPMf9zaNoa19dLN-58" value="" style="shape=module;align=left;spacingLeft=20;align=center;verticalAlign=top;whiteSpace=wrap;html=1;jettyWidth=7;jettyHeight=4;" vertex="1" parent="1">
          <mxGeometry x="390" y="559" width="20" height="20" as="geometry" />
        </mxCell>
        <mxCell id="aDMoCFPMf9zaNoa19dLN-59" value="&lt;span style=&quot;font-weight: 400; font-size: 14px;&quot;&gt;&amp;lt;&amp;lt;component&amp;gt;&amp;gt;&lt;/span&gt;" style="text;align=center;fontStyle=1;verticalAlign=middle;spacingLeft=3;spacingRight=3;strokeColor=none;rotatable=0;points=[[0,0.5],[1,0.5]];portConstraint=eastwest;html=1;fontSize=14;" vertex="1" parent="1">
          <mxGeometry x="280" y="555.5" width="80" height="26" as="geometry" />
        </mxCell>
        <mxCell id="aDMoCFPMf9zaNoa19dLN-60" value="" style="html=1;whiteSpace=wrap;" vertex="1" parent="1">
          <mxGeometry x="540" y="551" width="170" height="65" as="geometry" />
        </mxCell>
        <mxCell id="aDMoCFPMf9zaNoa19dLN-61" value="&lt;font style=&quot;font-size: 14px;&quot;&gt;&amp;lt;&amp;lt;artifact&amp;gt;&amp;gt;&lt;/font&gt;" style="text;html=1;align=center;verticalAlign=middle;whiteSpace=wrap;rounded=0;" vertex="1" parent="1">
          <mxGeometry x="595" y="551" width="60" height="30" as="geometry" />
        </mxCell>
        <mxCell id="aDMoCFPMf9zaNoa19dLN-62" value="&lt;span style=&quot;font-size: 14px;&quot;&gt;ReportView.js&lt;/span&gt;" style="text;align=center;fontStyle=1;verticalAlign=middle;spacingLeft=3;spacingRight=3;strokeColor=none;rotatable=0;points=[[0,0.5],[1,0.5]];portConstraint=eastwest;html=1;" vertex="1" parent="1">
          <mxGeometry x="585" y="576" width="80" height="26" as="geometry" />
        </mxCell>
        <mxCell id="aDMoCFPMf9zaNoa19dLN-63" value="" style="shape=note;whiteSpace=wrap;html=1;backgroundOutline=1;darkOpacity=0.05;size=5;" vertex="1" parent="1">
          <mxGeometry x="690" y="561" width="16" height="20" as="geometry" />
        </mxCell>
        <mxCell id="aDMoCFPMf9zaNoa19dLN-64" value="&amp;lt;&amp;lt;manifest&amp;gt;&amp;gt;" style="html=1;verticalAlign=bottom;endArrow=open;dashed=1;endSize=8;curved=0;rounded=0;entryX=1;entryY=0.5;entryDx=0;entryDy=0;exitX=0;exitY=0.5;exitDx=0;exitDy=0;" edge="1" parent="1" source="aDMoCFPMf9zaNoa19dLN-60" target="aDMoCFPMf9zaNoa19dLN-57">
          <mxGeometry relative="1" as="geometry">
            <mxPoint x="520" y="583.0799999999999" as="sourcePoint" />
            <mxPoint x="440" y="583.0799999999999" as="targetPoint" />
          </mxGeometry>
        </mxCell>
        <mxCell id="aDMoCFPMf9zaNoa19dLN-65" value="&lt;font style=&quot;font-size: 14px;&quot;&gt;Report View&lt;/font&gt;" style="text;align=center;fontStyle=1;verticalAlign=middle;spacingLeft=3;spacingRight=3;strokeColor=none;rotatable=0;points=[[0,0.5],[1,0.5]];portConstraint=eastwest;html=1;" vertex="1" parent="1">
          <mxGeometry x="280" y="581.5" width="80" height="26" as="geometry" />
        </mxCell>
        <mxCell id="aDMoCFPMf9zaNoa19dLN-66" value="" style="html=1;whiteSpace=wrap;" vertex="1" parent="1">
          <mxGeometry x="240" y="644.5" width="190" height="65" as="geometry" />
        </mxCell>
        <mxCell id="aDMoCFPMf9zaNoa19dLN-67" value="" style="shape=module;align=left;spacingLeft=20;align=center;verticalAlign=top;whiteSpace=wrap;html=1;jettyWidth=7;jettyHeight=4;" vertex="1" parent="1">
          <mxGeometry x="390" y="652.5" width="20" height="20" as="geometry" />
        </mxCell>
        <mxCell id="aDMoCFPMf9zaNoa19dLN-68" value="&lt;span style=&quot;font-weight: 400; font-size: 14px;&quot;&gt;&amp;lt;&amp;lt;component&amp;gt;&amp;gt;&lt;/span&gt;" style="text;align=center;fontStyle=1;verticalAlign=middle;spacingLeft=3;spacingRight=3;strokeColor=none;rotatable=0;points=[[0,0.5],[1,0.5]];portConstraint=eastwest;html=1;fontSize=14;" vertex="1" parent="1">
          <mxGeometry x="280" y="649" width="80" height="26" as="geometry" />
        </mxCell>
        <mxCell id="aDMoCFPMf9zaNoa19dLN-69" value="" style="html=1;whiteSpace=wrap;" vertex="1" parent="1">
          <mxGeometry x="540" y="644.5" width="170" height="65" as="geometry" />
        </mxCell>
        <mxCell id="aDMoCFPMf9zaNoa19dLN-70" value="&lt;font style=&quot;font-size: 14px;&quot;&gt;&amp;lt;&amp;lt;artifact&amp;gt;&amp;gt;&lt;/font&gt;" style="text;html=1;align=center;verticalAlign=middle;whiteSpace=wrap;rounded=0;" vertex="1" parent="1">
          <mxGeometry x="595" y="644.5" width="60" height="30" as="geometry" />
        </mxCell>
        <mxCell id="aDMoCFPMf9zaNoa19dLN-71" value="&lt;span style=&quot;font-size: 14px;&quot;&gt;PagePurchaseView.js&lt;/span&gt;" style="text;align=center;fontStyle=1;verticalAlign=middle;spacingLeft=3;spacingRight=3;strokeColor=none;rotatable=0;points=[[0,0.5],[1,0.5]];portConstraint=eastwest;html=1;" vertex="1" parent="1">
          <mxGeometry x="575" y="672.5" width="80" height="26" as="geometry" />
        </mxCell>
        <mxCell id="aDMoCFPMf9zaNoa19dLN-72" value="" style="shape=note;whiteSpace=wrap;html=1;backgroundOutline=1;darkOpacity=0.05;size=5;" vertex="1" parent="1">
          <mxGeometry x="690" y="654.5" width="16" height="20" as="geometry" />
        </mxCell>
        <mxCell id="aDMoCFPMf9zaNoa19dLN-73" value="&amp;lt;&amp;lt;manifest&amp;gt;&amp;gt;" style="html=1;verticalAlign=bottom;endArrow=open;dashed=1;endSize=8;curved=0;rounded=0;entryX=1;entryY=0.5;entryDx=0;entryDy=0;exitX=0;exitY=0.5;exitDx=0;exitDy=0;" edge="1" parent="1" source="aDMoCFPMf9zaNoa19dLN-69" target="aDMoCFPMf9zaNoa19dLN-66">
          <mxGeometry relative="1" as="geometry">
            <mxPoint x="520" y="676.5799999999999" as="sourcePoint" />
            <mxPoint x="440" y="676.5799999999999" as="targetPoint" />
          </mxGeometry>
        </mxCell>
        <mxCell id="aDMoCFPMf9zaNoa19dLN-74" value="&lt;span style=&quot;font-size: 14px;&quot;&gt;Page-purchased&lt;/span&gt;&lt;div&gt;&lt;span style=&quot;font-size: 14px;&quot;&gt;View&amp;nbsp;&lt;/span&gt;&lt;/div&gt;" style="text;align=center;fontStyle=1;verticalAlign=middle;spacingLeft=3;spacingRight=3;strokeColor=none;rotatable=0;points=[[0,0.5],[1,0.5]];portConstraint=eastwest;html=1;" vertex="1" parent="1">
          <mxGeometry x="280" y="675" width="80" height="26" as="geometry" />
        </mxCell>
        <mxCell id="aDMoCFPMf9zaNoa19dLN-75" value="" style="html=1;whiteSpace=wrap;" vertex="1" parent="1">
          <mxGeometry x="240" y="747.5" width="190" height="65" as="geometry" />
        </mxCell>
        <mxCell id="aDMoCFPMf9zaNoa19dLN-76" value="" style="shape=module;align=left;spacingLeft=20;align=center;verticalAlign=top;whiteSpace=wrap;html=1;jettyWidth=7;jettyHeight=4;" vertex="1" parent="1">
          <mxGeometry x="390" y="755.5" width="20" height="20" as="geometry" />
        </mxCell>
        <mxCell id="aDMoCFPMf9zaNoa19dLN-77" value="&lt;span style=&quot;font-weight: 400; font-size: 14px;&quot;&gt;&amp;lt;&amp;lt;component&amp;gt;&amp;gt;&lt;/span&gt;" style="text;align=center;fontStyle=1;verticalAlign=middle;spacingLeft=3;spacingRight=3;strokeColor=none;rotatable=0;points=[[0,0.5],[1,0.5]];portConstraint=eastwest;html=1;fontSize=14;" vertex="1" parent="1">
          <mxGeometry x="280" y="752" width="80" height="26" as="geometry" />
        </mxCell>
        <mxCell id="aDMoCFPMf9zaNoa19dLN-78" value="" style="html=1;whiteSpace=wrap;" vertex="1" parent="1">
          <mxGeometry x="540" y="747.5" width="170" height="65" as="geometry" />
        </mxCell>
        <mxCell id="aDMoCFPMf9zaNoa19dLN-79" value="&lt;font style=&quot;font-size: 14px;&quot;&gt;&amp;lt;&amp;lt;artifact&amp;gt;&amp;gt;&lt;/font&gt;" style="text;html=1;align=center;verticalAlign=middle;whiteSpace=wrap;rounded=0;" vertex="1" parent="1">
          <mxGeometry x="595" y="747.5" width="60" height="30" as="geometry" />
        </mxCell>
        <mxCell id="aDMoCFPMf9zaNoa19dLN-80" value="&lt;span style=&quot;font-size: 14px;&quot;&gt;AuthView.js&lt;/span&gt;" style="text;align=center;fontStyle=1;verticalAlign=middle;spacingLeft=3;spacingRight=3;strokeColor=none;rotatable=0;points=[[0,0.5],[1,0.5]];portConstraint=eastwest;html=1;" vertex="1" parent="1">
          <mxGeometry x="575" y="775.5" width="80" height="26" as="geometry" />
        </mxCell>
        <mxCell id="aDMoCFPMf9zaNoa19dLN-81" value="" style="shape=note;whiteSpace=wrap;html=1;backgroundOutline=1;darkOpacity=0.05;size=5;" vertex="1" parent="1">
          <mxGeometry x="690" y="757.5" width="16" height="20" as="geometry" />
        </mxCell>
        <mxCell id="aDMoCFPMf9zaNoa19dLN-82" value="&amp;lt;&amp;lt;manifest&amp;gt;&amp;gt;" style="html=1;verticalAlign=bottom;endArrow=open;dashed=1;endSize=8;curved=0;rounded=0;entryX=1;entryY=0.5;entryDx=0;entryDy=0;exitX=0;exitY=0.5;exitDx=0;exitDy=0;" edge="1" parent="1" source="aDMoCFPMf9zaNoa19dLN-78" target="aDMoCFPMf9zaNoa19dLN-75">
          <mxGeometry relative="1" as="geometry">
            <mxPoint x="520" y="779.5799999999999" as="sourcePoint" />
            <mxPoint x="440" y="779.5799999999999" as="targetPoint" />
          </mxGeometry>
        </mxCell>
        <mxCell id="aDMoCFPMf9zaNoa19dLN-83" value="&lt;span style=&quot;font-size: 14px;&quot;&gt;Authentication&lt;/span&gt;&lt;div&gt;&lt;span style=&quot;font-size: 14px;&quot;&gt;View&lt;/span&gt;&lt;/div&gt;" style="text;align=center;fontStyle=1;verticalAlign=middle;spacingLeft=3;spacingRight=3;strokeColor=none;rotatable=0;points=[[0,0.5],[1,0.5]];portConstraint=eastwest;html=1;" vertex="1" parent="1">
          <mxGeometry x="280" y="778" width="80" height="26" as="geometry" />
        </mxCell>
        <mxCell id="G74MwB8DFGIq-3ASuQ1E-1" value="" style="html=1;whiteSpace=wrap;" vertex="1" parent="1">
          <mxGeometry x="240" y="853.5" width="190" height="65" as="geometry" />
        </mxCell>
        <mxCell id="G74MwB8DFGIq-3ASuQ1E-2" value="" style="shape=module;align=left;spacingLeft=20;align=center;verticalAlign=top;whiteSpace=wrap;html=1;jettyWidth=7;jettyHeight=4;" vertex="1" parent="1">
          <mxGeometry x="390" y="861.5" width="20" height="20" as="geometry" />
        </mxCell>
        <mxCell id="G74MwB8DFGIq-3ASuQ1E-3" value="&lt;span style=&quot;font-weight: 400; font-size: 14px;&quot;&gt;&amp;lt;&amp;lt;component&amp;gt;&amp;gt;&lt;/span&gt;" style="text;align=center;fontStyle=1;verticalAlign=middle;spacingLeft=3;spacingRight=3;strokeColor=none;rotatable=0;points=[[0,0.5],[1,0.5]];portConstraint=eastwest;html=1;fontSize=14;" vertex="1" parent="1">
          <mxGeometry x="280" y="858" width="80" height="26" as="geometry" />
        </mxCell>
        <mxCell id="G74MwB8DFGIq-3ASuQ1E-4" value="" style="html=1;whiteSpace=wrap;" vertex="1" parent="1">
          <mxGeometry x="540" y="853.5" width="170" height="65" as="geometry" />
        </mxCell>
        <mxCell id="G74MwB8DFGIq-3ASuQ1E-5" value="&lt;font style=&quot;font-size: 14px;&quot;&gt;&amp;lt;&amp;lt;artifact&amp;gt;&amp;gt;&lt;/font&gt;" style="text;html=1;align=center;verticalAlign=middle;whiteSpace=wrap;rounded=0;" vertex="1" parent="1">
          <mxGeometry x="595" y="853.5" width="60" height="30" as="geometry" />
        </mxCell>
        <mxCell id="G74MwB8DFGIq-3ASuQ1E-6" value="&lt;span style=&quot;font-size: 14px;&quot;&gt;ConfigurationView.js&lt;/span&gt;" style="text;align=center;fontStyle=1;verticalAlign=middle;spacingLeft=3;spacingRight=3;strokeColor=none;rotatable=0;points=[[0,0.5],[1,0.5]];portConstraint=eastwest;html=1;" vertex="1" parent="1">
          <mxGeometry x="575" y="881.5" width="80" height="26" as="geometry" />
        </mxCell>
        <mxCell id="G74MwB8DFGIq-3ASuQ1E-7" value="" style="shape=note;whiteSpace=wrap;html=1;backgroundOutline=1;darkOpacity=0.05;size=5;" vertex="1" parent="1">
          <mxGeometry x="690" y="863.5" width="16" height="20" as="geometry" />
        </mxCell>
        <mxCell id="G74MwB8DFGIq-3ASuQ1E-8" value="&amp;lt;&amp;lt;manifest&amp;gt;&amp;gt;" style="html=1;verticalAlign=bottom;endArrow=open;dashed=1;endSize=8;curved=0;rounded=0;entryX=1;entryY=0.5;entryDx=0;entryDy=0;exitX=0;exitY=0.5;exitDx=0;exitDy=0;" edge="1" parent="1" source="G74MwB8DFGIq-3ASuQ1E-4" target="G74MwB8DFGIq-3ASuQ1E-1">
          <mxGeometry relative="1" as="geometry">
            <mxPoint x="520" y="885.5799999999999" as="sourcePoint" />
            <mxPoint x="440" y="885.5799999999999" as="targetPoint" />
          </mxGeometry>
        </mxCell>
        <mxCell id="G74MwB8DFGIq-3ASuQ1E-9" value="&lt;span style=&quot;font-size: 14px;&quot;&gt;Configuration VIew&lt;/span&gt;" style="text;align=center;fontStyle=1;verticalAlign=middle;spacingLeft=3;spacingRight=3;strokeColor=none;rotatable=0;points=[[0,0.5],[1,0.5]];portConstraint=eastwest;html=1;" vertex="1" parent="1">
          <mxGeometry x="280" y="884" width="80" height="26" as="geometry" />
        </mxCell>
      </root>
    </mxGraphModel>
  </diagram>
</mxfile>
